<svg id="comment" width="15" height="14" viewBox="0 0 15 14" fill="none" xmlns="http://www.w3.org/2000/svg">
  <path d="M10.8438 7C10.8438 7.1875 10.7708 7.34375 10.625 7.46875C10.5 7.59375 10.3438 7.65625 10.1562 7.65625H3.5L0.84375 10.3438V1C0.84375 0.8125 0.90625 0.65625 1.03125 0.53125C1.15625 0.40625 1.3125 0.34375 1.5 0.34375H10.1562C10.3438 0.34375 10.5 0.40625 10.625 0.53125C10.7708 0.65625 10.8438 0.8125 10.8438 1V7ZM13.5 3C13.6875 3 13.8438 3.0625 13.9688 3.1875C14.0938 3.3125 14.1562 3.46875 14.1562 3.65625V13.6562L11.5 11H4.15625C3.96875 11 3.8125 10.9375 3.6875 10.8125C3.5625 10.6875 3.5 10.5312 3.5 10.3438V9H12.1562V3H13.5Z" fill="#AE7AFF"/>
</svg>
