<svg width="14" height="14" viewBox="0 0 14 14" fill="none" xmlns="http://www.w3.org/2000/svg" id="settings">
<path d="M5.34375 8.65625C5.80208 9.11458 6.35417 9.34375 7 9.34375C7.64583 9.34375 8.19792 9.11458 8.65625 8.65625C9.11458 8.19792 9.34375 7.64583 9.34375 7C9.34375 6.35417 9.11458 5.80208 8.65625 5.34375C8.19792 4.88542 7.64583 4.65625 7 4.65625C6.35417 4.65625 5.80208 4.88542 5.34375 5.34375C4.88542 5.80208 4.65625 6.35417 4.65625 7C4.65625 7.64583 4.88542 8.19792 5.34375 8.65625ZM11.9688 7.65625L13.375 8.75C13.5208 8.85417 13.5417 9 13.4375 9.1875L12.0938 11.5C12.0104 11.6458 11.875 11.6875 11.6875 11.625L10.0312 10.9688C9.59375 11.2812 9.21875 11.5 8.90625 11.625L8.65625 13.375C8.61458 13.5625 8.51042 13.6562 8.34375 13.6562H5.65625C5.48958 13.6562 5.38542 13.5625 5.34375 13.375L5.09375 11.625C4.69792 11.4583 4.32292 11.2396 3.96875 10.9688L2.3125 11.625C2.125 11.6875 1.98958 11.6458 1.90625 11.5L0.5625 9.1875C0.458333 9 0.479167 8.85417 0.625 8.75L2.03125 7.65625C2.01042 7.51042 2 7.29167 2 7C2 6.70833 2.01042 6.48958 2.03125 6.34375L0.625 5.25C0.479167 5.14583 0.458333 5 0.5625 4.8125L1.90625 2.5C1.98958 2.35417 2.125 2.3125 2.3125 2.375L3.96875 3.03125C4.40625 2.71875 4.78125 2.5 5.09375 2.375L5.34375 0.625C5.38542 0.4375 5.48958 0.34375 5.65625 0.34375H8.34375C8.51042 0.34375 8.61458 0.4375 8.65625 0.625L8.90625 2.375C9.30208 2.54167 9.67708 2.76042 10.0312 3.03125L11.6875 2.375C11.875 2.3125 12.0104 2.35417 12.0938 2.5L13.4375 4.8125C13.5417 5 13.5208 5.14583 13.375 5.25L11.9688 6.34375C11.9896 6.48958 12 6.70833 12 7C12 7.29167 11.9896 7.51042 11.9688 7.65625Z" fill="currentColor"/>
</svg>
