<svg width="16" height="12" viewBox="0 0 16 12" fill="none" xmlns="http://www.w3.org/2000/svg">
<path d="M6.46875 8.09375C7.69792 7.59375 8.875 7.34375 10 7.34375C11.125 7.34375 12.2917 7.59375 13.5 8.09375C14.7292 8.57292 15.3438 9.20833 15.3438 10V11.3438H4.65625V10C4.65625 9.20833 5.26042 8.57292 6.46875 8.09375ZM4 4.65625H6V6H4V8H2.65625V6H0.65625V4.65625H2.65625V2.65625H4V4.65625ZM11.875 5.21875C11.3542 5.73958 10.7292 6 10 6C9.27083 6 8.64583 5.73958 8.125 5.21875C7.60417 4.69792 7.34375 4.07292 7.34375 3.34375C7.34375 2.61458 7.60417 1.98958 8.125 1.46875C8.64583 0.927083 9.27083 0.65625 10 0.65625C10.7292 0.65625 11.3542 0.927083 11.875 1.46875C12.3958 1.98958 12.6562 2.61458 12.6562 3.34375C12.6562 4.07292 12.3958 4.69792 11.875 5.21875Z" fill="black"/>
</svg>
